<svg id="visual" viewBox="0 0 960 540" width="960" height="540" xmlns="http://www.w3.org/2000/svg" xmlns:xlink="http://www.w3.org/1999/xlink" version="1.1"><rect x="0" y="0" width="960" height="540" fill="#001220"></rect><defs><linearGradient id="grad1_0" x1="43.8%" y1="0%" x2="100%" y2="100%"><stop offset="14.444444444444446%" stop-color="#001220" stop-opacity="1"></stop><stop offset="85.55555555555554%" stop-color="#001220" stop-opacity="1"></stop></linearGradient></defs><defs><linearGradient id="grad2_0" x1="0%" y1="0%" x2="56.3%" y2="100%"><stop offset="14.444444444444446%" stop-color="#001220" stop-opacity="1"></stop><stop offset="85.55555555555554%" stop-color="#001220" stop-opacity="1"></stop></linearGradient></defs><g transform="translate(960, 0)"><path d="M0 486C-39.6 472.9 -79.2 459.8 -120.1 448.2C-161 436.6 -203.1 426.5 -229.5 397.5C-255.9 368.5 -266.7 320.4 -289.2 289.2C-311.7 258 -346 243.5 -381.1 220C-416.1 196.5 -451.8 164 -469.4 125.8C-487.1 87.6 -486.5 43.8 -486 0L0 0Z" fill="#6600FF"></path></g><g transform="translate(0, 540)"><path d="M0 -486C33 -446.3 66 -406.7 106.4 -397C146.8 -387.3 194.7 -407.6 231 -400.1C267.3 -392.6 292.1 -357.2 329.5 -329.5C366.9 -301.8 416.8 -281.7 420.9 -243C425 -204.3 383.2 -147.1 386.4 -103.5C389.6 -59.9 437.8 -30 486 0L0 0Z" fill="#6600FF"></path></g></svg>