<svg xmlns="http://www.w3.org/2000/svg" data-name="Layer 1" viewBox="0 0 128 128" id="instagram"><path d="M84 36H44a8 8 0 0 0-8 8v40a8 8 0 0 0 8 8h40a8 8 0 0 0 8-8V44a8 8 0 0 0-8-8ZM64 80a16 16 0 1 1 16-16 16 16 0 0 1-16 16Zm18-29a5 5 0 1 1 5-5 5 5 0 0 1-5 5Z"></path><circle cx="64" cy="64" r="8"></circle><path d="M104 0H24A24.07 24.07 0 0 0 0 24v80a24.07 24.07 0 0 0 24 24h80a24.07 24.07 0 0 0 24-24V24a24.07 24.07 0 0 0-24-24Zm-4 84a16 16 0 0 1-16 16H44a16 16 0 0 1-16-16V44a16 16 0 0 1 16-16h40a16 16 0 0 1 16 16Z"></path></svg>